<svg xmlns="http://www.w3.org/2000/svg" viewBox="0 0 267.5 407.56"><defs><style>.cls-1{fill:#1d1d1b;}</style></defs><g id="Calque_2" data-name="Calque 2"><g id="Layer_3" data-name="Layer 3"><path class="cls-1" d="M267.5,168.62V273.81A133.75,133.75,0,0,1,133.75,407.56h0A133.75,133.75,0,0,1,0,273.81V110.44A25.24,25.24,0,0,1,25.24,85.2h0a25.24,25.24,0,0,1,25.25,25.24v99.63l2.75-.33V49.37a25.24,25.24,0,1,1,50.48,0V203.82l3.16-.37V25.24A25.24,25.24,0,0,1,132.12,0h0a25.24,25.24,0,0,1,25.24,25.24V197.52l2.75-.32V52.73a25.25,25.25,0,1,1,50.49,0V263c-10.22-.09-42.49,1-59.87,17.5-7.45,7.08-11.23,16.09-11.23,26.8h6c0-9,3.14-16.55,9.35-22.45,18.53-17.61,58.21-15.81,58.6-15.79l3.14.16,0-41.36V168.62a25.45,25.45,0,1,1,50.9,0Z"/></g></g></svg>