<svg xmlns="http://www.w3.org/2000/svg" viewBox="0 0 267.5 291.52"><defs><style>.cls-1{fill:#1d1d1b;}</style></defs><g id="Calque_2" data-name="Calque 2"><g id="Layer_3" data-name="Layer 3"><path class="cls-1" d="M182.81,85.71h59.24a25.45,25.45,0,1,1,0,50.89H182.81a25.45,25.45,0,1,1,0-50.89Zm0-3.67H210.6V25.24a25.25,25.25,0,0,0-50.49,0V93A29.07,29.07,0,0,1,182.81,82Zm-50.69,50.28h0a25.21,25.21,0,0,0,22.53-13.9,28.76,28.76,0,0,1,2.71-21.37V25.24A25.24,25.24,0,0,0,132.12,0h0a25.24,25.24,0,0,0-25.24,25.24v81.84A25.24,25.24,0,0,0,132.12,132.32Zm-53.64,0a25.24,25.24,0,0,0,25.24-25.24V25.24a25.24,25.24,0,1,0-50.48,0v81.84A25.24,25.24,0,0,0,78.48,132.32Zm163.57,7.94H203.19V152l-1.73.09c-.73,0-72.9,4.3-72.9,39.39h-3.67c0-35.75,63-42.07,74.64-42.94v-8.26H182.81A29.13,29.13,0,0,1,156.23,123a28.86,28.86,0,0,1-50.93-5.16,28.89,28.89,0,0,1-53.44.54A28.89,28.89,0,0,1,0,121.13v36.64A133.75,133.75,0,0,0,133.75,291.52h0A133.75,133.75,0,0,0,267.5,157.77V125.26A29.12,29.12,0,0,1,242.05,140.26ZM25.24,132.32h0a25.25,25.25,0,0,0,25.25-25.24V25.24A25.25,25.25,0,0,0,25.24,0h0A25.24,25.24,0,0,0,0,25.24v81.84A25.24,25.24,0,0,0,25.24,132.32Z"/></g></g></svg>