<svg xmlns="http://www.w3.org/2000/svg" viewBox="0 0 267.5 393.61"><defs><style>.cls-1{fill:#1d1d1b;}</style></defs><g id="Calque_2" data-name="Calque 2"><g id="Layer_3" data-name="Layer 3"><path class="cls-1" d="M242.05,187.8a25.45,25.45,0,1,1,0,50.89H182.81a25.45,25.45,0,1,1,0-50.89ZM132.12,234.42h0a25.22,25.22,0,0,0,22.53-13.91,28.76,28.76,0,0,1,2.71-21.37,26,26,0,0,1,2.75-4.08,29.07,29.07,0,0,1,22.7-10.93H210.6L250.1,42.05a25.24,25.24,0,1,0-48.64-13.53L160.11,177.25h-2.75v-152a25.24,25.24,0,0,0-50.48,0V209.17A25.24,25.24,0,0,0,132.12,234.42Zm-53.64,0a25.24,25.24,0,0,0,25.24-25.25V127.34a25.24,25.24,0,1,0-50.48,0v81.83A25.24,25.24,0,0,0,78.48,234.42Zm163.57,7.94H203.19v11.71l-1.73.09c-.73,0-72.9,4.3-72.9,39.4h-3.67c0-35.75,63-42.08,74.64-42.94v-8.26H182.81a29.15,29.15,0,0,1-26.58-17.29,28.86,28.86,0,0,1-50.93-5.17,28.89,28.89,0,0,1-53.44.55A28.89,28.89,0,0,1,0,223.22v36.64A133.75,133.75,0,0,0,133.75,393.61h0A133.75,133.75,0,0,0,267.5,259.86V227.35A29.13,29.13,0,0,1,242.05,242.36ZM25.24,234.42h0a25.25,25.25,0,0,0,25.25-25.25V127.34a25.26,25.26,0,0,0-25.25-25.25h0A25.25,25.25,0,0,0,0,127.34v81.83A25.24,25.24,0,0,0,25.24,234.42Z"/></g></g></svg>